#N canvas 176 55 1093 574 10;
#X declare -lib mrpeach;
#X obj -29 -24 openpanel;
#N canvas 0 0 450 300 (subpatch) 0;
#X array sampleL 94803 float 2;
#X coords 0 1 94803 -1 300 100 2 0 0;
#X restore 285 59 graph;
#N canvas 0 0 450 300 (subpatch) 0;
#X array sampleR 94803 float 2;
#X coords 0 1 94803 -1 300 100 2 0 0;
#X restore 285 175 graph;
#X msg -29 -3 read -resize \$1 sampleL sampleR;
#X obj 208 28 bng 50 250 50 0 empty empty OPEN 10 -7 0 10 -262144 -1
-1;
#X obj -29 18 soundfiler;
#X obj -29 58 expr 44100 / $f1;
#X obj -29 276 phasor~;
#X obj -28 319 *~;
#X obj -19 38 s numSamples;
#X obj -13 299 r numSamples;
#X obj -54 455 output~;
#X obj -85 394 *~;
#X obj 24 395 *~;
#X obj 209 286 knob 45 45 0.1 1 1 0 empty empty VOL 0 -8 0 8 -262144
-1 -1 4199 1;
#X floatatom 209 338 5 0 0 0 - - -;
#X obj 283 160 hsl 300 15 0 1 0 0 empty empty empty -2 -8 0 10 -262144
-1 -1 0 1;
#N canvas 860 362 374 202 visualize 0;
#X obj 84 48 inlet~;
#X obj 85 68 snaps~;
#X obj 85 110 /;
#X obj 100 88 r numSamples;
#X obj 85 132 outlet;
#X floatatom 152 130 5 0 0 0 - - -;
#X connect 0 0 1 0;
#X connect 1 0 2 0;
#X connect 2 0 4 0;
#X connect 2 0 5 0;
#X connect 3 0 2 1;
#X restore 286 -22 pd visualize;
#X obj -86 372 tabread4~ sampleL;
#X obj 24 372 tabread4~ sampleR;
#X obj 428 298 bng 15 250 50 0 empty empty Reset 20 8 0 10 -262144
-1 -1;
#X floatatom -1 124 8 0 0 0 - - -;
#X obj -18 143 *;
#X floatatom -18 164 8 0 0 0 - - -;
#X obj 431 318 hsl 128 15 0 2 0 0 empty empty Pitch-adj -2 25 0 10
-262144 -1 -1 6350 1;
#X msg 399 316 1;
#X obj 289 28 hsl 300 15 0 1 0 0 empty empty Quick-CUE -2 -8 0 10 -262144
-1 -1 15900 1;
#X obj -171 370 s~ playBack;
#X obj 286 -42 r~ playBack;
#X obj 490 299 tgl 15 0 empty empty Reverse 20 8 0 10 -262144 -1 -1
0 1;
#X obj -18 248 *;
#X obj 0 207 sel 0;
#X msg 0 228 1;
#X msg 27 229 -1;
#X obj 311 301 bng 35 250 50 0 empty empty PLAY 7 -7 0 10 -262144 -1
-1;
#X obj 356 301 bng 35 250 50 0 empty empty STOP 7 -7 0 10 -262144 -1
-1;
#X msg -130 210 0;
#X obj 59 146 loadbang;
#X obj 370 -22 s quickCUE;
#X obj 0 187 r REV;
#X obj 490 340 s REV;
#X obj 311 344 s playOUT;
#X obj 259 279 r playIN;
#X obj 58 229 s playIN;
#X obj -67 187 r playOUT;
#X obj 59 206 s stopIN;
#X obj 212 95 vu 15 160 envL empty -1 -8 0 10 -66577 -1 1 0;
#X obj 235 95 vu 15 160 envL empty -1 -8 0 10 -66577 -1 1 0;
#X obj 59 166 t b b b b;
#X msg 142 186 0.9;
#X obj 142 80 s OPN;
#X obj 77 126 r OPN;
#X obj -29 -45 r OPN;
#X obj 70 444 s envR;
#X obj -139 443 s envL;
#X obj 70 423 pvu~;
#X obj -139 422 pvu~;
#X obj 429 277 r resetIN;
#X obj 78 187 s resetIN;
#X obj -130 187 r stopOUT;
#X obj 356 371 s stopOUT;
#X obj 419 393 s resetOUT;
#X obj 428 372 s sliderPitchOUT;
#X obj -1 103 r resetOUT;
#X obj -18 82 r sliderPitchOUT;
#X obj 259 258 r stopIN;
#X obj 491 276 r sliderPitchIN;
#X obj -130 81 s sliderPitchIN;
#X obj -178 81 change;
#X obj -178 101 s resetIN;
#X obj 209 365 s volOUT;
#X obj -46 394 r volOUT;
#X obj 142 209 s volIN;
#X obj 140 257 r volIN;
#X obj 589 276 r reverseIN;
#N canvas -6 196 1354 360 receiveOSC 0;
#X obj 57 41 unpackOSC;
#X obj 57 63 routeOSC /SamplerLayout;
#X obj 57 86 routeOSC /main;
#X floatatom -6 153 5 0 0 0 - - -;
#X floatatom 48 153 5 0 0 0 - - -;
#X floatatom 103 153 5 0 0 0 - - -;
#X floatatom 261 151 5 0 0 0 - - -;
#X floatatom 315 151 5 0 0 0 - - -;
#X obj -6 176 s volIN;
#X obj 48 227 s sliderPitchIN;
#X obj 103 176 sig~;
#X obj 261 176 s resetIN;
#X obj 324 176 s reverseIN;
#X obj 152 152 routeOSC /1 /2;
#X obj 143 176 s playIN;
#X obj 199 176 s stopIN;
#X obj 621 85 routeOSC /keyboard;
#X obj 747 108 routeOSC /push2 /push3 /push4 /push5 /push6 /push7 /push8
;
#X obj 1100 109 routeOSC /push9 /push10 /push11 /push12 /push13;
#X obj 281 16 import mrpeach;
#X obj 621 111 unpack f f;
#X obj 603 140 s midiNote;
#X obj 678 140 s velocity;
#X obj 460 112 routeOSC /octDown /octUp;
#N canvas 274 237 417 201 counter 0;
#X obj 115 26 inlet +;
#X obj 63 26 inlet -;
#X obj 76 80 +;
#X obj 38 102 i;
#X msg 63 57 -1;
#X msg 95 57 1;
#X obj 76 102 clip -2 2;
#X obj 38 58 bng 15 250 50 0 empty empty empty 17 7 0 10 -262144 -1
-1;
#X obj 38 129 outlet;
#X connect 0 0 5 0;
#X connect 0 0 7 0;
#X connect 1 0 4 0;
#X connect 1 0 7 0;
#X connect 2 0 6 0;
#X connect 3 0 2 0;
#X connect 3 0 8 0;
#X connect 4 0 2 1;
#X connect 5 0 2 1;
#X connect 6 0 3 1;
#X connect 7 0 3 0;
#X restore 460 134 pd counter;
#X obj 459 156 s currentOctave;
#X obj 854 175 s midiNote;
#X msg 747 139 24;
#X msg 783 139 26;
#X msg 818 139 28;
#X msg 854 139 29;
#X msg 891 139 31;
#X msg 927 139 33;
#X msg 963 138 35;
#X msg 1100 136 25;
#X msg 1154 138 27;
#X msg 1210 138 30;
#X msg 1266 138 32;
#X msg 1310 139 34;
#X obj 1210 171 s midiNote;
#X obj 57 110 routeOSC /masterGAIN /fader1 /fader2 /multipush1 /push1
/toggle1 /scratchTgl;
#X obj 402 157 tgl 15 0 empty empty empty 17 7 0 10 -262144 -1 -1 0
1;
#X obj 103 200 s~ playBackCUE;
#X obj 57 18 udpreceive 8000;
#X obj 402 176 s scratchModeIN;
#X msg 543 24 1;
#X msg 505 24 0;
#X obj 505 48 s sNote;
#X connect 0 0 1 0;
#X connect 1 0 2 0;
#X connect 1 0 16 0;
#X connect 2 0 40 0;
#X connect 2 0 46 0;
#X connect 3 0 8 0;
#X connect 4 0 9 0;
#X connect 5 0 10 0;
#X connect 6 0 11 0;
#X connect 7 0 12 0;
#X connect 10 0 42 0;
#X connect 13 0 14 0;
#X connect 13 1 15 0;
#X connect 16 0 20 0;
#X connect 16 0 23 0;
#X connect 16 0 17 0;
#X connect 16 0 18 0;
#X connect 16 0 45 0;
#X connect 17 0 27 0;
#X connect 17 1 28 0;
#X connect 17 2 29 0;
#X connect 17 3 30 0;
#X connect 17 4 31 0;
#X connect 17 5 32 0;
#X connect 17 6 33 0;
#X connect 18 0 34 0;
#X connect 18 1 35 0;
#X connect 18 2 36 0;
#X connect 18 3 37 0;
#X connect 18 4 38 0;
#X connect 20 1 22 0;
#X connect 23 0 24 0;
#X connect 23 1 24 1;
#X connect 24 0 25 0;
#X connect 27 0 26 0;
#X connect 28 0 26 0;
#X connect 29 0 26 0;
#X connect 30 0 26 0;
#X connect 31 0 26 0;
#X connect 32 0 26 0;
#X connect 33 0 26 0;
#X connect 34 0 39 0;
#X connect 35 0 39 0;
#X connect 36 0 39 0;
#X connect 37 0 39 0;
#X connect 38 0 39 0;
#X connect 40 0 3 0;
#X connect 40 1 4 0;
#X connect 40 2 5 0;
#X connect 40 3 13 0;
#X connect 40 4 6 0;
#X connect 40 5 7 0;
#X connect 40 6 41 0;
#X connect 41 0 44 0;
#X connect 43 0 0 0;
#X connect 45 0 47 0;
#X connect 46 0 47 0;
#X restore 674 107 pd receiveOSC;
#N canvas 740 186 450 300 sendOSC 0;
#X restore 674 129 pd sendOSC;
#N canvas 136 124 570 485 scratch 0;
#X obj 65 54 r quickCUE;
#X obj 65 103 spigot;
#X obj 141 78 tgl 15 0 empty empty empty 17 7 0 10 -262144 -1 -1 0
1;
#X obj 252 79 change;
#X obj 252 103 sel 1;
#X obj 252 126 bng 15 250 50 0 empty empty empty 17 7 0 10 -262144
-1 -1;
#X obj 279 127 bng 15 250 50 0 empty empty empty 17 7 0 10 -262144
-1 -1;
#X msg 248 148 0;
#X obj 279 148 f;
#X obj 248 193 s phasorPlace;
#X obj 68 127 hsl 128 15 0 1 0 0 empty empty empty -2 -8 0 10 -262144
-1 -1 8240 1;
#X obj 65 149 change;
#X obj 65 315 i;
#X obj 65 218 *;
#X obj 96 176 loadbang;
#X obj 65 391 s~ scratched;
#X obj 300 126 r sliderPitchOUT;
#X obj 64 289 *;
#X obj 175 225 knob 32 32 0 1 0 0 empty empty empty 0 -8 0 8 -262144
-1 -1 3100 1;
#X floatatom 104 316 8 0 0 0 - - -;
#X obj 65 367 line~;
#X msg 65 342 \$1 100;
#X msg 174 195 1;
#X obj 252 55 r scratchModeOUT;
#X obj 141 54 r scratchModeOUT;
#X floatatom 305 172 5 0 0 0 - - -;
#X obj 83 196 r numSamples;
#X obj 342 172 s sliderPitchIN;
#X connect 0 0 1 0;
#X connect 1 0 10 0;
#X connect 2 0 1 1;
#X connect 3 0 4 0;
#X connect 4 0 5 0;
#X connect 4 1 6 0;
#X connect 5 0 7 0;
#X connect 6 0 8 0;
#X connect 7 0 9 0;
#X connect 8 0 9 0;
#X connect 8 0 25 0;
#X connect 8 0 27 0;
#X connect 10 0 11 0;
#X connect 11 0 13 0;
#X connect 12 0 19 0;
#X connect 12 0 21 0;
#X connect 13 0 17 0;
#X connect 14 0 22 0;
#X connect 16 0 8 1;
#X connect 17 0 12 0;
#X connect 18 0 17 1;
#X connect 20 0 15 0;
#X connect 21 0 20 0;
#X connect 22 0 18 0;
#X connect 23 0 3 0;
#X connect 24 0 2 0;
#X connect 26 0 13 1;
#X restore 674 165 pd scratch;
#X obj -219 187 r phasorPlace;
#X obj 25 346 r~ scratched;
#N canvas 157 149 858 482 keyboard 0;
#X obj 100 31 key;
#X floatatom 100 51 5 0 0 0 - - -;
#X obj 100 104 sel 97 119 115 101 100 102 116 103 121 104 117 106;
#X msg 82 160 24;
#X msg 149 161 26;
#X msg 208 161 28;
#X msg 244 161 29;
#X msg 303 160 31;
#X msg 362 160 33;
#X msg 428 160 35;
#X msg 116 136 25;
#X msg 177 135 27;
#X msg 274 135 30;
#X msg 334 135 32;
#X msg 397 136 34;
#X obj 235 215 s midiNote;
#X obj 488 47 r midiNote;
#X obj 488 151 change;
#X obj 488 172 t b f;
#X obj 515 195 / 12;
#X obj 500 218 pow;
#X msg 482 195 2;
#X obj 500 239 s sliderPitchIN;
#X floatatom 619 237 5 0 0 0 - - -;
#X floatatom 572 194 5 0 0 0 - - -;
#X obj 488 71 + 24;
#X obj 488 93 +;
#X obj 562 70 * 12;
#X obj 562 46 r currentOctave;
#X obj 488 127 - 48;
#X obj 699 47 r velocity;
#X obj 699 68 / 127;
#X obj 699 89 s volIN;
#X obj 100 75 spigot;
#X obj 133 30 inlet;
#X connect 0 0 1 0;
#X connect 1 0 33 0;
#X connect 2 0 3 0;
#X connect 2 1 10 0;
#X connect 2 2 4 0;
#X connect 2 3 11 0;
#X connect 2 4 5 0;
#X connect 2 5 6 0;
#X connect 2 6 12 0;
#X connect 2 7 7 0;
#X connect 2 8 13 0;
#X connect 2 9 8 0;
#X connect 2 10 14 0;
#X connect 2 11 9 0;
#X connect 3 0 15 0;
#X connect 4 0 15 0;
#X connect 5 0 15 0;
#X connect 6 0 15 0;
#X connect 7 0 15 0;
#X connect 8 0 15 0;
#X connect 9 0 15 0;
#X connect 10 0 15 0;
#X connect 11 0 15 0;
#X connect 12 0 15 0;
#X connect 13 0 15 0;
#X connect 14 0 15 0;
#X connect 16 0 25 0;
#X connect 17 0 18 0;
#X connect 18 0 21 0;
#X connect 18 1 19 0;
#X connect 18 1 24 0;
#X connect 19 0 20 1;
#X connect 20 0 22 0;
#X connect 20 0 23 0;
#X connect 21 0 20 0;
#X connect 25 0 26 0;
#X connect 26 0 29 0;
#X connect 27 0 26 1;
#X connect 28 0 27 0;
#X connect 29 0 17 0;
#X connect 30 0 31 0;
#X connect 31 0 32 0;
#X connect 33 0 2 0;
#X connect 34 0 33 1;
#X restore 676 225 pd keyboard;
#X obj 442 -22 r playBackCUE;
#X obj 573 7 tgl 15 0 empty empty empty 17 7 0 10 -262144 -1 -1 0 1
;
#X obj 573 -32 r scratchModeIN;
#X obj 593 -10 s scratchModeOUT;
#X obj -94 422 outlet~ L;
#X obj 2 423 outlet~ R;
#X obj 676 194 tgl 25 0 empty empty Keyboard-Active 30 12 0 10 -262144
-1 -1 0 1;
#X obj 31 275 s phasorFreq;
#N canvas 171 105 505 277 singleNote 0;
#X obj 123 128 delay;
#X obj 150 101 * 1000;
#X obj 123 36 r playOUT;
#X obj 123 174 s stopIN;
#X obj 150 79 inv;
#X obj 150 57 r phasorFreq;
#X obj 123 151 spigot;
#X obj 164 128 inlet;
#X msg 29 78 stop;
#X obj 29 35 r midiNote;
#X obj 29 56 change;
#X obj 29 103 bng 15 250 50 0 empty empty empty 17 7 0 10 -262144 -1
-1;
#X connect 0 0 6 0;
#X connect 1 0 0 0;
#X connect 2 0 0 0;
#X connect 4 0 1 0;
#X connect 5 0 4 0;
#X connect 6 0 3 0;
#X connect 7 0 6 1;
#X connect 8 0 0 0;
#X connect 8 0 11 0;
#X connect 9 0 10 0;
#X connect 10 0 8 0;
#X connect 11 0 6 0;
#X restore 678 350 pd singleNote;
#X obj 678 317 tgl 25 0 empty empty Single-Note 30 12 0 10 -262144
-1 -1 1 1;
#X obj 678 293 r sNote;
#X connect 0 0 3 0;
#X connect 3 0 5 0;
#X connect 4 0 50 0;
#X connect 5 0 6 0;
#X connect 5 0 9 0;
#X connect 6 0 7 0;
#X connect 6 0 21 0;
#X connect 6 0 67 0;
#X connect 6 0 68 0;
#X connect 7 0 8 0;
#X connect 8 0 18 0;
#X connect 8 0 19 0;
#X connect 8 0 27 0;
#X connect 10 0 8 1;
#X connect 12 0 11 0;
#X connect 12 0 56 0;
#X connect 12 0 85 0;
#X connect 13 0 11 1;
#X connect 13 0 55 0;
#X connect 13 0 86 0;
#X connect 14 0 15 0;
#X connect 15 0 70 0;
#X connect 17 0 16 0;
#X connect 18 0 12 0;
#X connect 19 0 13 0;
#X connect 20 0 25 0;
#X connect 20 0 61 0;
#X connect 21 0 22 1;
#X connect 22 0 23 0;
#X connect 23 0 30 0;
#X connect 24 0 62 0;
#X connect 25 0 24 0;
#X connect 26 0 38 0;
#X connect 28 0 17 0;
#X connect 29 0 40 0;
#X connect 30 0 7 0;
#X connect 30 0 88 0;
#X connect 31 0 32 0;
#X connect 31 1 33 0;
#X connect 32 0 30 1;
#X connect 32 0 43 0;
#X connect 33 0 30 1;
#X connect 33 0 43 0;
#X connect 34 0 41 0;
#X connect 35 0 60 0;
#X connect 36 0 7 0;
#X connect 36 0 7 1;
#X connect 37 0 48 0;
#X connect 39 0 31 0;
#X connect 42 0 34 0;
#X connect 44 0 30 0;
#X connect 48 0 45 0;
#X connect 48 1 32 0;
#X connect 48 2 58 0;
#X connect 48 3 49 0;
#X connect 49 0 72 0;
#X connect 51 0 48 0;
#X connect 52 0 0 0;
#X connect 55 0 53 0;
#X connect 56 0 54 0;
#X connect 57 0 20 0;
#X connect 59 0 36 0;
#X connect 63 0 21 0;
#X connect 64 0 22 0;
#X connect 65 0 35 0;
#X connect 66 0 24 0;
#X connect 68 0 69 0;
#X connect 71 0 13 1;
#X connect 71 0 12 1;
#X connect 73 0 14 0;
#X connect 74 0 29 0;
#X connect 78 0 7 0;
#X connect 79 0 19 0;
#X connect 79 0 18 0;
#X connect 81 0 26 0;
#X connect 82 0 84 0;
#X connect 83 0 82 0;
#X connect 87 0 80 0;
#X connect 90 0 89 0;
#X connect 91 0 90 0;
#X coords 0 -1 1 1 420 360 2 180 0;
